<mxfile host="app.diagrams.net" modified="2024-01-19T04:05:55.886Z" agent="Mozilla/5.0 (Windows NT 10.0; Win64; x64) AppleWebKit/537.36 (KHTML, like Gecko) Chrome/120.0.0.0 Safari/537.36" etag="Gp16RVvc7OLjpfpD8rVx" version="22.1.21" type="github">
  <diagram name="Page-1" id="-f_M0xhV5ntUJTx_LsOS">
    <mxGraphModel dx="567" dy="328" grid="1" gridSize="10" guides="1" tooltips="1" connect="1" arrows="1" fold="1" page="1" pageScale="1" pageWidth="850" pageHeight="1100" math="0" shadow="0">
      <root>
        <mxCell id="0" />
        <mxCell id="1" parent="0" />
        <mxCell id="2LSIa2VPgDkOX0W-sISF-1" value="" style="verticalLabelPosition=bottom;shadow=0;dashed=0;align=center;html=1;verticalAlign=top;strokeWidth=1;shape=mxgraph.electrical.miscellaneous.monocell_battery;rotation=90;" vertex="1" parent="1">
          <mxGeometry x="120" y="190" width="100" height="60" as="geometry" />
        </mxCell>
        <mxCell id="2LSIa2VPgDkOX0W-sISF-2" value="" style="verticalLabelPosition=bottom;shadow=0;dashed=0;align=center;html=1;verticalAlign=top;shape=mxgraph.electrical.opto_electronics.led_2;pointerEvents=1;rotation=90;" vertex="1" parent="1">
          <mxGeometry x="474" y="190" width="100" height="60" as="geometry" />
        </mxCell>
        <mxCell id="2LSIa2VPgDkOX0W-sISF-4" value="" style="verticalLabelPosition=bottom;shadow=0;dashed=0;align=center;html=1;verticalAlign=top;shape=mxgraph.electrical.opto_electronics.led_2;pointerEvents=1;rotation=90;" vertex="1" parent="1">
          <mxGeometry x="554" y="190" width="100" height="60" as="geometry" />
        </mxCell>
        <mxCell id="2LSIa2VPgDkOX0W-sISF-5" value="" style="pointerEvents=1;verticalLabelPosition=bottom;shadow=0;dashed=0;align=center;html=1;verticalAlign=top;shape=mxgraph.electrical.resistors.resistor_2;rotation=0;" vertex="1" parent="1">
          <mxGeometry x="310" y="60" width="100" height="20" as="geometry" />
        </mxCell>
        <mxCell id="2LSIa2VPgDkOX0W-sISF-6" value="" style="endArrow=none;html=1;rounded=0;" edge="1" parent="1">
          <mxGeometry width="50" height="50" relative="1" as="geometry">
            <mxPoint x="170" y="170" as="sourcePoint" />
            <mxPoint x="170" y="70" as="targetPoint" />
          </mxGeometry>
        </mxCell>
        <mxCell id="2LSIa2VPgDkOX0W-sISF-7" value="" style="endArrow=none;html=1;rounded=0;exitX=0;exitY=0.5;exitDx=0;exitDy=0;exitPerimeter=0;" edge="1" parent="1" source="2LSIa2VPgDkOX0W-sISF-5">
          <mxGeometry width="50" height="50" relative="1" as="geometry">
            <mxPoint x="230" y="160" as="sourcePoint" />
            <mxPoint x="170" y="70" as="targetPoint" />
          </mxGeometry>
        </mxCell>
        <mxCell id="2LSIa2VPgDkOX0W-sISF-8" value="" style="endArrow=none;html=1;rounded=0;entryX=1;entryY=0.5;entryDx=0;entryDy=0;entryPerimeter=0;" edge="1" parent="1" target="2LSIa2VPgDkOX0W-sISF-5">
          <mxGeometry width="50" height="50" relative="1" as="geometry">
            <mxPoint x="520" y="70" as="sourcePoint" />
            <mxPoint x="190" y="90" as="targetPoint" />
          </mxGeometry>
        </mxCell>
        <mxCell id="2LSIa2VPgDkOX0W-sISF-9" value="" style="endArrow=none;html=1;rounded=0;entryX=0;entryY=0.57;entryDx=0;entryDy=0;entryPerimeter=0;" edge="1" parent="1" target="2LSIa2VPgDkOX0W-sISF-2">
          <mxGeometry width="50" height="50" relative="1" as="geometry">
            <mxPoint x="520" y="70" as="sourcePoint" />
            <mxPoint x="200" y="100" as="targetPoint" />
          </mxGeometry>
        </mxCell>
        <mxCell id="2LSIa2VPgDkOX0W-sISF-10" value="" style="endArrow=none;html=1;rounded=0;" edge="1" parent="1">
          <mxGeometry width="50" height="50" relative="1" as="geometry">
            <mxPoint x="600" y="70" as="sourcePoint" />
            <mxPoint x="520" y="70" as="targetPoint" />
          </mxGeometry>
        </mxCell>
        <mxCell id="2LSIa2VPgDkOX0W-sISF-11" value="" style="endArrow=none;html=1;rounded=0;exitX=0;exitY=0.57;exitDx=0;exitDy=0;exitPerimeter=0;" edge="1" parent="1" source="2LSIa2VPgDkOX0W-sISF-4">
          <mxGeometry width="50" height="50" relative="1" as="geometry">
            <mxPoint x="600" y="170" as="sourcePoint" />
            <mxPoint x="600" y="70" as="targetPoint" />
          </mxGeometry>
        </mxCell>
        <mxCell id="2LSIa2VPgDkOX0W-sISF-12" value="" style="endArrow=none;html=1;rounded=0;" edge="1" parent="1">
          <mxGeometry width="50" height="50" relative="1" as="geometry">
            <mxPoint x="170" y="370" as="sourcePoint" />
            <mxPoint x="170" y="270" as="targetPoint" />
          </mxGeometry>
        </mxCell>
        <mxCell id="2LSIa2VPgDkOX0W-sISF-13" value="" style="endArrow=none;html=1;rounded=0;" edge="1" parent="1">
          <mxGeometry width="50" height="50" relative="1" as="geometry">
            <mxPoint x="519.78" y="370" as="sourcePoint" />
            <mxPoint x="519.78" y="270" as="targetPoint" />
          </mxGeometry>
        </mxCell>
        <mxCell id="2LSIa2VPgDkOX0W-sISF-14" value="" style="endArrow=none;html=1;rounded=0;" edge="1" parent="1">
          <mxGeometry width="50" height="50" relative="1" as="geometry">
            <mxPoint x="599.78" y="370" as="sourcePoint" />
            <mxPoint x="599.78" y="270" as="targetPoint" />
          </mxGeometry>
        </mxCell>
        <mxCell id="2LSIa2VPgDkOX0W-sISF-15" value="" style="endArrow=none;html=1;rounded=0;" edge="1" parent="1">
          <mxGeometry width="50" height="50" relative="1" as="geometry">
            <mxPoint x="170" y="370" as="sourcePoint" />
            <mxPoint x="600" y="370" as="targetPoint" />
          </mxGeometry>
        </mxCell>
      </root>
    </mxGraphModel>
  </diagram>
</mxfile>
